<svg xmlns="http://www.w3.org/2000/svg" xmlns:xlink="http://www.w3.org/1999/xlink" version="1.1" id="Layer_1" x="0px" y="0px" viewBox="0 0 600 600" style="enable-background:new 0 0 600 600;" xml:space="preserve" width="600"  height="600" >
<style type="text/css">
	.st0{fill:none;stroke:url(#SVGID_1_);stroke-width:4;stroke-miterlimit:10;}
</style>
<linearGradient id="SVGID_1_" gradientUnits="userSpaceOnUse" x1="510.7625" y1="510.7732" x2="89.2193" y2="89.2301">
	<stop offset="0" style="stop-color:#FEF288"/>
	<stop offset="2.905620e-02" style="stop-color:#CCEC91"/>
	<stop offset="9.529033e-02" style="stop-color:#5FDDA5"/>
	<stop offset="0.1411" style="stop-color:#1BD4B2"/>
	<stop offset="0.1624" style="stop-color:#00D1B7"/>
	<stop offset="0.4162" style="stop-color:#50AAD5"/>
	<stop offset="0.6447" style="stop-color:#0082C8"/>
	<stop offset="0.8325" style="stop-color:#003662"/>
	<stop offset="1" style="stop-color:#041E37"/>
</linearGradient>
<path class="st0" d="M175.4,453c9.9,9,22.3,14.7,33.1,22.1C197.8,467.5,185.2,462.1,175.4,453 M108.3,74.5  c79.1-66.8,188.4-86,287.2-50.3c-19.1,50.6-45.4,82.3-70.4,78.7c-56-8.1-112.4,8-155.1,44.1c-83.3,70.4-92.5,196-20.7,280.5  c8,9.4,17,17.1,25.9,25.2c59.1,48.7,141.4,60.9,211.6,28.2c5.1-2.4,9.3-5.7,14.2-8.3c10.1-5.8,20.1-11.7,29.3-19.5  c83.3-70.4,92.5-196,20.7-280.5c-4.5-5.3-9.4-10.4-14.4-15.3C418,139.7,426,99,453.1,52.3c25.9,16.3,49.2,36.5,69.1,59.9  c6.5,7.6,12.5,15.5,18.1,23.6c0,0,0,0,0,0C617,246.2,609.8,393,525,492.4c-0.1,0-0.1,0.1-0.2,0.1c0,0,0.1,0,0.1-0.1  c-10,11.7-21.1,22.8-33.2,33.1c-122.7,103.7-308,86.8-413.9-37.7C-28.1,363.2-14.5,178.2,108.3,74.5"/>
</svg>